<?xml version="1.0" encoding="utf-8"?>
<!-- Generator: Adobe Illustrator 23.0.6, SVG Export Plug-In . SVG Version: 6.00 Build 0)  -->
<svg version="1.1" id="Layer_1" xmlns="http://www.w3.org/2000/svg" xmlns:xlink="http://www.w3.org/1999/xlink" x="0px" y="0px"
	 viewBox="0 0 300 300" style="enable-background:new 0 0 300 300;" xml:space="preserve">
<style type="text/css">
	.st0{clip-path:url(#SVGID_2_);fill:#3C3C3C;}
	.st1{clip-path:url(#SVGID_2_);fill:#0B7564;}
	.st2{clip-path:url(#SVGID_2_);}
	.st3{clip-path:url(#SVGID_2_);fill:#8CD1CB;}
	.st4{clip-path:url(#SVGID_2_);fill:#EAF6F4;}
	.st5{clip-path:url(#SVGID_2_);fill:#CCEAE8;}
	.st6{clip-path:url(#SVGID_2_);fill:#71C9BE;}
	.st7{clip-path:url(#SVGID_2_);fill:#020202;}
	.st8{clip-path:url(#SVGID_2_);fill:#63C5B4;}
	.st9{clip-path:url(#SVGID_2_);fill:#C0E5E2;}
</style>
<g>
	<defs>
		<circle id="SVGID_1_" cx="150" cy="150" r="136.54"/>
	</defs>
	<clipPath id="SVGID_2_">
		<use xlink:href="#SVGID_1_"  style="overflow:visible;"/>
	</clipPath>
	<rect x="104.93" y="215.52" class="st0" width="6.92" height="60.78"/>
	<rect x="104.93" y="213.5" class="st1" width="6.92" height="60.78"/>
	<rect x="71.53" y="215.52" class="st0" width="6.92" height="60.78"/>
	<rect x="71.53" y="213.5" class="st1" width="6.92" height="60.78"/>
	<polygon class="st2" points="119.63,83.44 105.8,83.44 96.01,92.08 96.01,104.29 105.8,112.92 119.63,112.92 129.42,104.29 
		129.42,92.08 	"/>
	<polygon class="st2" points="153.04,83.44 139.2,83.44 129.42,92.08 129.42,104.29 139.2,112.92 153.04,112.92 162.82,104.29 
		162.82,92.08 	"/>
	<polygon class="st2" points="186.44,83.44 172.61,83.44 162.82,92.08 162.82,104.29 172.61,112.92 186.44,112.92 196.23,104.29 
		196.23,92.08 	"/>
	<polygon class="st2" points="219.85,83.44 206.01,83.44 196.23,92.08 196.23,104.29 206.01,112.92 219.85,112.92 229.63,104.29 
		229.63,92.08 	"/>
	<polygon class="st2" points="153.04,112.92 139.2,112.92 129.42,121.55 129.42,133.76 139.2,142.4 153.04,142.4 162.82,133.76 
		162.82,121.55 	"/>
	<polygon class="st2" points="186.44,112.92 172.61,112.92 162.82,121.55 162.82,133.76 172.61,142.4 186.44,142.4 196.23,133.76 
		196.23,121.55 	"/>
	<polygon class="st2" points="219.85,112.92 206.01,112.92 196.23,121.55 196.23,133.76 206.01,142.4 219.85,142.4 229.63,133.76 
		229.63,121.55 	"/>
	<polygon class="st2" points="253.25,112.92 239.42,112.92 229.63,121.55 229.63,133.76 239.42,142.4 253.25,142.4 263.04,133.76 
		263.04,121.55 	"/>
	<polygon class="st1" points="52.83,142.4 38.99,142.4 29.2,151.03 29.2,163.24 38.99,171.87 52.83,171.87 62.61,163.24 
		62.61,151.03 	"/>
	<polygon class="st1" points="86.23,142.4 72.39,142.4 62.61,151.03 62.61,163.24 72.39,171.87 86.23,171.87 96.01,163.24 
		96.01,151.03 	"/>
	<polygon class="st1" points="119.63,142.4 105.8,142.4 96.01,151.03 96.01,163.24 105.8,171.87 119.63,171.87 129.42,163.24 
		129.42,151.03 	"/>
	<polygon class="st1" points="153.04,142.4 139.2,142.4 129.42,151.03 129.42,163.24 139.2,171.87 153.04,171.87 162.82,163.24 
		162.82,151.03 	"/>
	<polygon class="st1" points="86.23,171.87 72.39,171.87 62.61,180.51 62.61,192.72 72.39,201.35 86.23,201.35 96.01,192.72 
		96.01,180.51 	"/>
	<polygon class="st2" points="119.63,171.87 105.8,171.87 96.01,180.51 96.01,192.72 105.8,201.35 119.63,201.35 129.42,192.72 
		129.42,180.51 	"/>
	<polygon class="st1" points="153.04,171.87 139.2,171.87 129.42,180.51 129.42,192.72 139.2,201.35 153.04,201.35 162.82,192.72 
		162.82,180.51 	"/>
	<polygon class="st1" points="186.44,171.87 172.61,171.87 162.82,180.51 162.82,192.72 172.61,201.35 186.44,201.35 196.23,192.72 
		196.23,180.51 	"/>
	<rect x="176.07" y="202.69" class="st2" width="6.92" height="60.78"/>
	<rect x="142.66" y="202.69" class="st2" width="6.92" height="60.78"/>
	<rect x="109.26" y="202.69" class="st2" width="6.92" height="60.78"/>
	<rect x="75.85" y="202.69" class="st2" width="6.92" height="60.78"/>
	<polyline class="st2" points="216.39,17.2 216.39,77.98 209.47,77.98 209.47,17.2 	"/>
	<polyline class="st2" points="182.99,17.2 182.99,77.98 176.07,77.98 176.07,17.2 	"/>
	<polyline class="st2" points="149.58,17.2 149.58,77.98 142.66,77.98 142.66,17.2 	"/>
	<polyline class="st2" points="116.18,17.2 116.18,77.98 109.26,77.98 109.26,17.2 	"/>
	<polygon class="st3" points="119.55,81.38 105.71,81.38 95.93,90.01 95.93,102.22 105.71,110.85 119.55,110.85 129.33,102.22 
		129.33,90.01 	"/>
	<polygon class="st3" points="152.96,81.38 139.12,81.38 129.33,90.01 129.33,102.22 139.12,110.85 152.96,110.85 162.74,102.22 
		162.74,90.01 	"/>
	<polygon class="st3" points="186.36,81.38 172.52,81.38 162.74,90.01 162.74,102.22 172.52,110.85 186.36,110.85 196.14,102.22 
		196.14,90.01 	"/>
	<polygon class="st3" points="219.76,81.38 205.93,81.38 196.14,90.01 196.14,102.22 205.93,110.85 219.76,110.85 229.55,102.22 
		229.55,90.01 	"/>
	<polygon class="st3" points="152.96,110.85 139.12,110.85 129.33,119.49 129.33,131.7 139.12,140.33 152.96,140.33 162.74,131.7 
		162.74,119.49 	"/>
	<polygon class="st3" points="186.36,110.85 172.52,110.85 162.74,119.49 162.74,131.7 172.52,140.33 186.36,140.33 196.14,131.7 
		196.14,119.49 	"/>
	<polygon class="st3" points="219.76,110.85 205.93,110.85 196.14,119.49 196.14,131.7 205.93,140.33 219.76,140.33 229.55,131.7 
		229.55,119.49 	"/>
	<polygon class="st3" points="253.17,110.85 239.33,110.85 229.55,119.49 229.55,131.7 239.33,140.33 253.17,140.33 262.95,131.7 
		262.95,119.49 	"/>
	<polygon class="st4" points="52.74,140.33 38.9,140.33 29.12,148.96 29.12,161.17 38.9,169.81 52.74,169.81 62.53,161.17 
		62.53,148.96 	"/>
	<polygon class="st4" points="86.15,140.33 72.31,140.33 62.53,148.96 62.53,161.17 72.31,169.81 86.15,169.81 95.93,161.17 
		95.93,148.96 	"/>
	<polygon class="st4" points="119.55,140.33 105.71,140.33 95.93,148.96 95.93,161.17 105.71,169.81 119.55,169.81 129.33,161.17 
		129.33,148.96 	"/>
	<polygon class="st4" points="152.96,140.33 139.12,140.33 129.33,148.96 129.33,161.17 139.12,169.81 152.96,169.81 162.74,161.17 
		162.74,148.96 	"/>
	<polygon class="st4" points="86.15,169.81 72.31,169.81 62.53,178.44 62.53,190.65 72.31,199.29 86.15,199.29 95.93,190.65 
		95.93,178.44 	"/>
	<polygon class="st4" points="119.55,169.81 105.71,169.81 95.93,178.44 95.93,190.65 105.71,199.29 119.55,199.29 129.33,190.65 
		129.33,178.44 	"/>
	<polygon class="st4" points="152.96,169.81 139.12,169.81 129.33,178.44 129.33,190.65 139.12,199.29 152.96,199.29 162.74,190.65 
		162.74,178.44 	"/>
	<polygon class="st4" points="186.36,169.81 172.52,169.81 162.74,178.44 162.74,190.65 172.52,199.29 186.36,199.29 196.14,190.65 
		196.14,178.44 	"/>
	<rect x="175.98" y="200.62" class="st1" width="6.92" height="60.78"/>
	<rect x="142.58" y="200.62" class="st1" width="6.92" height="60.78"/>
	<rect x="109.17" y="200.62" class="st5" width="6.92" height="60.78"/>
	<rect x="75.77" y="200.62" class="st5" width="6.92" height="60.78"/>
	<polyline class="st6" points="216.31,15.14 216.31,75.91 209.39,75.91 209.39,15.14 	"/>
	<polyline class="st6" points="182.9,15.14 182.9,75.91 175.98,75.91 175.98,15.14 	"/>
	<polyline class="st6" points="149.5,15.14 149.5,75.91 142.58,75.91 142.58,15.14 	"/>
	<polyline class="st6" points="116.09,15.14 116.09,75.91 109.17,75.91 109.17,15.14 	"/>
	<polygon class="st7" points="122.23,79.45 108.39,79.45 98.61,88.09 98.61,100.3 108.39,108.93 122.23,108.93 132.01,100.3 
		132.01,88.09 	"/>
	<polygon class="st0" points="155.63,79.45 141.8,79.45 132.01,88.09 132.01,100.3 141.8,108.93 155.63,108.93 165.42,100.3 
		165.42,88.09 	"/>
	<polygon class="st0" points="189.04,79.45 175.2,79.45 165.42,88.09 165.42,100.3 175.2,108.93 189.04,108.93 198.82,100.3 
		198.82,88.09 	"/>
	<polygon class="st0" points="222.44,79.45 208.61,79.45 198.82,88.09 198.82,100.3 208.61,108.93 222.44,108.93 232.23,100.3 
		232.23,88.09 	"/>
	<polygon class="st0" points="155.63,108.93 141.8,108.93 132.01,117.56 132.01,129.77 141.8,138.41 155.63,138.41 165.42,129.77 
		165.42,117.56 	"/>
	<polygon class="st0" points="189.04,108.93 175.2,108.93 165.42,117.56 165.42,129.77 175.2,138.41 189.04,138.41 198.82,129.77 
		198.82,117.56 	"/>
	<polygon class="st0" points="222.44,108.93 208.61,108.93 198.82,117.56 198.82,129.77 208.61,138.41 222.44,138.41 232.23,129.77 
		232.23,117.56 	"/>
	<polygon class="st0" points="255.85,108.93 242.01,108.93 232.23,117.56 232.23,129.77 242.01,138.41 255.85,138.41 265.63,129.77 
		265.63,117.56 	"/>
	<polygon class="st0" points="55.42,138.41 41.58,138.41 31.8,147.04 31.8,159.25 41.58,167.89 55.42,167.89 65.2,159.25 
		65.2,147.04 	"/>
	<polygon class="st0" points="88.83,138.41 74.99,138.41 65.2,147.04 65.2,159.25 74.99,167.89 88.83,167.89 98.61,159.25 
		98.61,147.04 	"/>
	<polygon class="st0" points="122.23,138.41 108.39,138.41 98.61,147.04 98.61,159.25 108.39,167.89 122.23,167.89 132.01,159.25 
		132.01,147.04 	"/>
	<polygon class="st0" points="155.63,138.41 141.8,138.41 132.01,147.04 132.01,159.25 141.8,167.89 155.63,167.89 165.42,159.25 
		165.42,147.04 	"/>
	<polygon class="st0" points="88.83,167.89 74.99,167.89 65.2,176.52 65.2,188.73 74.99,197.36 88.83,197.36 98.61,188.73 
		98.61,176.52 	"/>
	<polygon class="st0" points="122.23,167.89 108.39,167.89 98.61,176.52 98.61,188.73 108.39,197.36 122.23,197.36 132.01,188.73 
		132.01,176.52 	"/>
	<polygon class="st0" points="155.63,167.89 141.8,167.89 132.01,176.52 132.01,188.73 141.8,197.36 155.63,197.36 165.42,188.73 
		165.42,176.52 	"/>
	<polygon class="st0" points="189.04,167.89 175.2,167.89 165.42,176.52 165.42,188.73 175.2,197.36 189.04,197.36 198.82,188.73 
		198.82,176.52 	"/>
	<rect x="178.66" y="198.7" class="st0" width="6.92" height="60.78"/>
	<rect x="145.26" y="198.7" class="st0" width="6.92" height="60.78"/>
	<rect x="111.85" y="198.7" class="st0" width="6.92" height="60.78"/>
	<rect x="78.45" y="198.7" class="st0" width="6.92" height="60.78"/>
	<polyline class="st0" points="218.98,13.21 218.98,73.99 212.07,73.99 212.07,13.21 	"/>
	<polyline class="st0" points="185.58,13.21 185.58,73.99 178.66,73.99 178.66,13.21 	"/>
	<polyline class="st0" points="152.18,13.21 152.18,73.99 145.26,73.99 145.26,13.21 	"/>
	<polyline class="st0" points="118.77,13.21 118.77,73.99 111.85,73.99 111.85,13.21 	"/>
	<polygon class="st6" points="122.23,77.43 108.39,77.43 98.61,86.06 98.61,98.27 108.39,106.91 122.23,106.91 132.01,98.27 
		132.01,86.06 	"/>
	<polygon class="st6" points="155.63,77.43 141.8,77.43 132.01,86.06 132.01,98.27 141.8,106.91 155.63,106.91 165.42,98.27 
		165.42,86.06 	"/>
	<polygon class="st6" points="189.04,77.43 175.2,77.43 165.42,86.06 165.42,98.27 175.2,106.91 189.04,106.91 198.82,98.27 
		198.82,86.06 	"/>
	<polygon class="st6" points="222.44,77.43 208.61,77.43 198.82,86.06 198.82,98.27 208.61,106.91 222.44,106.91 232.23,98.27 
		232.23,86.06 	"/>
	<polygon class="st8" points="155.63,106.91 141.8,106.91 132.01,115.54 132.01,127.75 141.8,136.38 155.63,136.38 165.42,127.75 
		165.42,115.54 	"/>
	<polygon class="st6" points="189.04,106.91 175.2,106.91 165.42,115.54 165.42,127.75 175.2,136.38 189.04,136.38 198.82,127.75 
		198.82,115.54 	"/>
	<polygon class="st6" points="222.44,106.91 208.61,106.91 198.82,115.54 198.82,127.75 208.61,136.38 222.44,136.38 232.23,127.75 
		232.23,115.54 	"/>
	<polygon class="st6" points="255.85,106.91 242.01,106.91 232.23,115.54 232.23,127.75 242.01,136.38 255.85,136.38 265.63,127.75 
		265.63,115.54 	"/>
	<polygon class="st5" points="55.42,136.38 41.58,136.38 31.8,145.02 31.8,157.23 41.58,165.86 55.42,165.86 65.2,157.23 
		65.2,145.02 	"/>
	<polygon class="st5" points="88.83,136.38 74.99,136.38 65.2,145.02 65.2,157.23 74.99,165.86 88.83,165.86 98.61,157.23 
		98.61,145.02 	"/>
	<polygon class="st5" points="122.23,136.38 108.39,136.38 98.61,145.02 98.61,157.23 108.39,165.86 122.23,165.86 132.01,157.23 
		132.01,145.02 	"/>
	<polygon class="st5" points="155.63,136.38 141.8,136.38 132.01,145.02 132.01,157.23 141.8,165.86 155.63,165.86 165.42,157.23 
		165.42,145.02 	"/>
	<polygon class="st5" points="88.83,165.86 74.99,165.86 65.2,174.49 65.2,186.7 74.99,195.34 88.83,195.34 98.61,186.7 
		98.61,174.49 	"/>
	<polygon class="st5" points="122.23,165.86 108.39,165.86 98.61,174.49 98.61,186.7 108.39,195.34 122.23,195.34 132.01,186.7 
		132.01,174.49 	"/>
	<polygon class="st5" points="155.63,165.86 141.8,165.86 132.01,174.49 132.01,186.7 141.8,195.34 155.63,195.34 165.42,186.7 
		165.42,174.49 	"/>
	<polygon class="st5" points="189.04,165.86 175.2,165.86 165.42,174.49 165.42,186.7 175.2,195.34 189.04,195.34 198.82,186.7 
		198.82,174.49 	"/>
	<rect x="178.66" y="196.67" class="st9" width="6.92" height="60.78"/>
	<rect x="145.26" y="196.67" class="st9" width="6.92" height="60.78"/>
	<rect x="111.85" y="196.67" class="st6" width="6.92" height="60.78"/>
	<rect x="78.45" y="196.67" class="st4" width="6.92" height="60.78"/>
	<polyline class="st5" points="218.98,11.19 218.98,71.97 212.07,71.97 212.07,11.19 	"/>
	<polyline class="st5" points="185.58,11.19 185.58,71.97 178.66,71.97 178.66,11.19 	"/>
	<polyline class="st5" points="152.18,11.19 152.18,71.97 145.26,71.97 145.26,11.19 	"/>
	<polyline class="st5" points="118.77,11.19 118.77,71.97 111.85,71.97 111.85,11.19 	"/>
	<rect x="185.58" y="204.77" class="st0" width="6.92" height="60.78"/>
	<rect x="185.58" y="202.75" class="st6" width="6.92" height="60.78"/>
	<rect x="152.18" y="204.77" class="st0" width="6.92" height="60.78"/>
	<rect x="152.18" y="202.75" class="st9" width="6.92" height="60.78"/>
</g>
</svg>
