<?xml version="1.0" encoding="utf-8"?>
<!-- Generator: Adobe Illustrator 25.0.0, SVG Export Plug-In . SVG Version: 6.00 Build 0)  -->
<svg version="1.1" xmlns="http://www.w3.org/2000/svg" xmlns:xlink="http://www.w3.org/1999/xlink" x="0px" y="0px"
	 viewBox="0 0 300 350" style="enable-background:new 0 0 300 350;" xml:space="preserve">
<style type="text/css">
	.st0{display:none;}
	.st1{display:inline;fill:none;stroke:#CCCCCC;stroke-width:8;stroke-miterlimit:10;}
	.st2{fill:none;stroke:#DBAB26;stroke-width:8;stroke-miterlimit:10;}
	.st3{fill:#DBAB26;}
	.st4{font-family:'HelveticaNeue';}
	.st5{font-size:50px;}
	.st6{fill:#FFFFFF;}
	.st7{fill:none;stroke:#DBAB26;stroke-width:8;stroke-linecap:square;stroke-miterlimit:10;}
</style>
<g id="Layer_1">
	<g id="Layer_2_1_" class="st0">
		<circle class="st1" cx="149" cy="152.7" r="143"/>
	</g>
</g>
<g id="Layer_2">
	<circle class="st2" cx="150" cy="144" r="137.5"/>
</g>
<g id="Layer_3_1_">
	<text transform="matrix(1 0 0 1 46.3011 346.4002)" class="st3 st4 st5">RESUME</text>
	<g id="Layer_4_1_">
		<polygon class="st2" points="198.6,108.4 170.6,108.4 170.6,82.6 101.4,82.6 101.4,209.4 198.6,209.4 		"/>
		<g>
			<polygon class="st3" points="174.6,78.6 174.6,104.4 202.6,104.4 			"/>
		</g>
		<g>
			<polygon class="st6" points="193.6,105.4 173.6,105.4 173.6,87.6 			"/>
		</g>
		<path class="st6" d="M194.6,104.4"/>
		<path class="st6" d="M202.6,104.4"/>
		<path class="st6" d="M194.6,104.4"/>
		<line class="st7" x1="119.5" y1="124.9" x2="159.5" y2="124.9"/>
		<line class="st7" x1="119.6" y1="146.4" x2="179.6" y2="146.4"/>
		<line class="st7" x1="119.1" y1="167.4" x2="139.1" y2="167.4"/>
		<line class="st7" x1="119.6" y1="188.9" x2="169.6" y2="188.9"/>
	</g>
</g>
</svg>
