<?xml version="1.0" encoding="utf-8"?>
<!-- Generator: Adobe Illustrator 25.0.0, SVG Export Plug-In . SVG Version: 6.00 Build 0)  -->
<svg version="1.1" id="Layer_1" xmlns="http://www.w3.org/2000/svg" xmlns:xlink="http://www.w3.org/1999/xlink" x="0px" y="0px"
	 viewBox="0 0 283.9 283.5" style="enable-background:new 0 0 283.9 283.5;" xml:space="preserve">
<style type="text/css">
	.st0{display:none;}
	.st1{display:inline;fill:none;stroke:#CCCCCC;stroke-width:8;stroke-miterlimit:10;}
	.st2{fill:#73BCB2;stroke:#73A8BC;stroke-width:8;stroke-miterlimit:10;}
	.st3{fill:#73A8BC;}
</style>
<g id="Layer_1_1_">
	<g id="Layer_2_1_" class="st0">
		<circle class="st1" cx="141" cy="150.5" r="143"/>
	</g>
</g>
<g id="Layer_2_2_">
	<circle class="st2" cx="142" cy="141.8" r="137.5"/>
</g>
<path class="st3" d="M141.9,68.8c-40.3,0-73,33.5-73,74.8c0,33.1,20.9,61.1,49.9,71c0.5,0.1,0.8,0.1,1.2,0.1c2.7,0,3.7-2,3.7-3.7
	c0-1.8-0.1-6.5-0.1-12.7c-2.7,0.6-5.2,0.9-7.4,0.9c-14,0-17.2-10.9-17.2-10.9c-3.3-8.6-8.1-10.9-8.1-10.9c-6.4-4.5,0-4.6,0.5-4.6
	c0,0,0,0,0,0c7.3,0.7,11.2,7.8,11.2,7.8c3.6,6.4,8.5,8.2,12.9,8.2c3.4,0,6.5-1.1,8.3-2c0.7-4.8,2.5-8.1,4.6-10
	c-16.2-1.9-33.2-8.3-33.2-37c0-8.2,2.8-14.9,7.5-20.1c-0.7-1.9-3.3-9.5,0.7-19.8c0,0,0.5-0.2,1.6-0.2c2.6,0,8.6,1,18.4,7.8
	c5.8-1.7,12.1-2.5,18.3-2.5c6.2,0,12.4,0.8,18.3,2.5c9.8-6.8,15.8-7.8,18.4-7.8c1.1,0,1.6,0.2,1.6,0.2c4,10.3,1.5,17.9,0.7,19.8
	c4.7,5.2,7.5,11.9,7.5,20.1c0,28.7-17.1,35-33.3,36.9c2.6,2.3,5,6.9,5,13.8c0,10-0.1,18.1-0.1,20.5c0,1.8,1,3.7,3.7,3.7
	c0.4,0,0.8,0,1.3-0.1c29-9.9,49.9-37.9,49.9-71C214.9,102.3,182.2,68.8,141.9,68.8z"/>
</svg>
