<?xml version="1.0" encoding="utf-8"?>
<!-- Generator: Adobe Illustrator 25.0.0, SVG Export Plug-In . SVG Version: 6.00 Build 0)  -->
<svg version="1.1" id="Layer_1" xmlns="http://www.w3.org/2000/svg" xmlns:xlink="http://www.w3.org/1999/xlink" x="0px" y="0px"
	 viewBox="0 0 283.9 283.5" style="enable-background:new 0 0 283.9 283.5;" xml:space="preserve">
<style type="text/css">
	.st0{display:none;}
	.st1{display:inline;fill:none;stroke:#CCCCCC;stroke-width:8;stroke-miterlimit:10;}
	.st2{fill:#73BCB2;stroke:#FFFFFF;stroke-width:8;stroke-miterlimit:10;}
	.st3{fill:#FFFFFF;}
</style>
<g id="Layer_1_1_">
	<g id="Layer_2_1_" class="st0">
		<circle class="st1" cx="141" cy="150.5" r="143"/>
	</g>
</g>
<g id="Layer_2_2_">
	<circle class="st2" cx="142" cy="141.8" r="137.5"/>
</g>
<path class="st3" d="M196,77.4H88.6c-5.9,0-11,4.2-11,10v107.7c0,5.8,5.1,11,11,11H196c5.9,0,10.3-5.2,10.3-11V87.4
	C206.4,81.6,201.9,77.4,196,77.4z M117.5,184.7H99.1v-57.3h18.4V184.7z M108.9,118.7h-0.1c-5.9,0-9.7-4.4-9.7-9.9
	c0-5.6,3.9-9.9,10-9.9s9.7,4.3,9.9,9.9C118.9,114.3,115.1,118.7,108.9,118.7L108.9,118.7z M184.9,184.7h-18.4v-31.3
	c0-7.5-2.7-12.6-9.4-12.6c-5.1,0-8.1,3.4-9.5,6.8c-0.5,1.2-0.6,2.9-0.6,4.5v32.7h-18.4v-57.3H147v8c2.7-3.8,6.9-9.3,16.6-9.3
	c12.1,0,21.3,8,21.3,25.2L184.9,184.7z"/>
</svg>
